<?xml version="1.0" standalone="no"?><!DOCTYPE svg PUBLIC "-//W3C//DTD SVG 1.1//EN" "http://www.w3.org/Graphics/SVG/1.1/DTD/svg11.dtd"><svg t="1695201264388" class="icon" viewBox="0 0 1024 1024" version="1.1" xmlns="http://www.w3.org/2000/svg" p-id="4000" xmlns:xlink="http://www.w3.org/1999/xlink" width="200" height="200"><path d="M512 0C229.260033 0 0 229.260033 0 512s229.260033 512 512 512 512-229.260033 512-512S794.739967 0 512 0z m246.148433 605.37878c-27.584387 0-76.912589-15.832875-96.897196-22.306762-19.984607-6.473887-27.584387-14.706982-32.862012-45.246839s-26.458494-41.095107-50.524464-42.221001c-16.04398-0.774052-42.009896-0.774052-57.561298-0.703683v0.140736l-6.473886-0.070368-6.473887 0.070368v-0.140736c-15.551402-0.070368-41.517317-0.070368-57.561297 0.703683-24.06597 1.125893-45.246839 11.751512-50.524464 42.221001s-12.947774 38.843321-32.862013 45.246839c-19.984607 6.403518-69.312809 22.306762-96.897196 22.306762-27.584387 0-32.299065-66.990654-32.299065-66.990655 0-87.538208 217.930731-111.604178 246.71138-111.604178h59.883452c28.780649 0 246.71138 24.06597 246.71138 111.604178-0.070368 0.070368-4.785047 66.990654-32.369434 66.990655z m0 0" fill="#FF3B30" p-id="4001"></path></svg>